<svg width="856" height="520" viewBox="0 0 856 520" fill="none" xmlns="http://www.w3.org/2000/svg">
<path d="M416 29.6C416 49.8666 386.667 60 328 60C269.333 60 240 136.533 240 289.6C240 443.2 229.333 520 208 520C186.667 520 176 443.2 176 289.6C176 136.533 146.667 60 88 60C29.3333 60 4.76837e-07 49.8666 4.76837e-07 29.6C4.76837e-07 9.86664 69.3333 -2.86102e-05 208 -2.86102e-05C346.667 -2.86102e-05 416 9.86664 416 29.6ZM855.844 29.6C855.844 49.8666 826.51 60 767.844 60C709.177 60 679.844 136.533 679.844 289.6C679.844 443.2 669.177 520 647.844 520C626.51 520 615.844 443.2 615.844 289.6C615.844 136.533 586.51 60 527.844 60C469.177 60 439.844 49.8666 439.844 29.6C439.844 9.86664 509.177 -2.86102e-05 647.844 -2.86102e-05C786.51 -2.86102e-05 855.844 9.86664 855.844 29.6Z" fill="white"/>
</svg>




